{"title":"Scream 4 [2011] TS Rip XviD D3MT","uid":6326400,"size":901583338,"categoryP":"video","categoryS":"movies","magnet":"?xt=urn:btih:d08e70cbbf31105ac57b2b784927afeb62df0430&amp;dn=Scream+4+%5B2011%5D+TS+Rip+XviD+D3MT&amp;tr=udp%3A%2F%2Ftracker.openbittorrent.com%3A80&amp;tr=udp%3A%2F%2Fopen.demonii.com%3A1337&amp;tr=udp%3A%2F%2Ftracker.coppersurfer.tk%3A6969&amp;tr=udp%3A%2F%2Fexodus.desync.com%3A6969","seeders":2,"leechers":0,"uploader":"arihantkatariya","files":2,"time":1303087438,"description":"Scream 4 [2011] TS Rip XviD D3MT-DAYN DOT ORG\n\nInfo:\n\n[QUOTE]Format/Info                      : Audio Video Interleave\nFile size                        : 834 MiB\nDuration                         : 1h 39mn\nOverall bit rate                 : 1 174 Kbps\nWriting application              : Lavf52.39.1\n\nVideo\nID                               : 0\nFormat                           : MPEG-4 Visual\nFormat settings, BVOP            : 1\nFormat settings, QPel            : No\nFormat settings, GMC             : No warppoints\nFormat settings, Matrix          : Default (H.263)\nMuxing mode                      : Packed bitstream\nCodec ID                         : DX50\nCodec ID/Hint                    : DivX 5\nDuration                         : 1h 39mn\nBit rate                         : 1 034 Kbps\nWidth                            : 624 pixels\nHeight                           : 272 pixels\nDisplay aspect ratio             : 2.25:1\nFrame rate                       : 25.000 fps\nColor space                      : YUV\nChroma subsampling               : 4:2:0\nBit depth                        : 8 bits\nScan type                        : Progressive\nCompression mode                 : Lossy\nBits/(Pixel*Frame)               : 0.244\nStream size                      : 735 MiB (88%)\nWriting library                  : DivX 6.8.5 (UTC 2009-08-20)\n\nAudio\nID                               : 1\nFormat                           : MPEG Audio\nFormat version                   : Version 1\nFormat profile                   : Layer 2\nCodec ID                         : 50\nDuration                         : 1h 39mn\nBit rate mode                    : Constant\nBit rate                         : 128 Kbps\nChannel(s)                       : 2 channels\nSampling rate                    : 44.1 KHz\nCompression mode                 : Lossy\nStream size                      : 90.9 MiB (11%)\nAlignment                        : Aligned on interleaves\nInterleave, duration             : 26 ms (0.65 video frame)\nSource                                     : Thanks To IMAGINE\n","torrent":{"xt":"urn:btih:d08e70cbbf31105ac57b2b784927afeb62df0430","amp;dn":"Scream+4+%5B2011%5D+TS+Rip+XviD+D3MT","amp;tr":["udp%3A%2F%2Ftracker.openbittorrent.com%3A80","udp%3A%2F%2Fopen.demonii.com%3A1337","udp%3A%2F%2Ftracker.coppersurfer.tk%3A6969","udp%3A%2F%2Fexodus.desync.com%3A6969"],"infoHash":"d08e70cbbf31105ac57b2b784927afeb62df0430","infoHashBuffer":{"type":"Buffer","data":[208,142,112,203,191,49,16,90,197,123,43,120,73,39,175,235,98,223,4,48]},"announce":[],"urlList":[]}}